<svg width="147" height="148" viewBox="0 0 147 148" fill="none" xmlns="http://www.w3.org/2000/svg">
<path d="M3.12737 18.3281H4.89452C6.6104 18.3281 8.0219 16.9155 8.0219 15.2008C8.0219 13.4849 6.61035 12.0723 4.89452 12.0723H3.12737C1.41149 12.0723 0 13.4849 0 15.2008C0 16.9155 1.41155 18.3281 3.12737 18.3281Z" fill="#FF8B20"/>
<path d="M62.4576 18.327H79.753V49.6035H57.6723C55.9564 49.6035 54.5449 51.0151 54.5449 52.7309C54.5449 54.4468 55.9565 55.8583 57.6723 55.8583H82.8815C84.5962 55.8583 86.0088 54.4467 86.0088 52.7309V52.1059H96.6423C97.9469 52.1004 99.1163 51.2812 99.5669 50.0573L100.63 50.87C106.953 55.7164 114.699 58.3498 122.664 58.3607H127.231C131.406 58.3531 134.839 54.9203 134.847 50.7446C134.84 50.2886 134.793 49.8337 134.706 49.3843H137.334H137.347C141.516 49.3843 144.948 45.9537 144.948 41.7844C144.948 40.6837 144.708 39.5929 144.245 38.5936C145.954 37.1635 146.942 35.0451 146.942 32.8175C146.942 29.9725 145.332 27.3612 142.791 26.0827C143.015 25.3682 143.135 24.6254 143.151 23.8782C143.151 23.8422 143.153 23.8051 143.153 23.7691C143.153 19.5867 139.715 16.1451 135.535 16.1376H135.239C133.854 11.4939 129.542 8.29669 124.698 8.31847H115.721C110.64 8.32502 105.788 10.4576 102.351 14.1982L99.3323 17.4979C98.8054 16.4954 97.7746 15.8529 96.6423 15.8245H86.0089V15.1994C86.0089 13.4836 84.5962 12.071 82.8815 12.071H62.4576C60.7417 12.071 59.3303 13.4836 59.3303 15.1994C59.3303 16.9142 60.7418 18.3268 62.4576 18.3268L62.4576 18.327ZM99.9894 26.1462L107.058 18.4362C109.29 16.0113 112.427 14.6129 115.721 14.5736H124.636C126.004 14.5452 127.319 15.1168 128.232 16.1378H122.664C120.95 16.1378 119.537 17.5494 119.537 19.2652C119.537 20.981 120.95 22.3926 122.664 22.3926H135.535C136.281 22.3926 136.895 23.0078 136.895 23.7529C136.895 24.499 136.281 25.1142 135.535 25.1142H127.153C125.437 25.1142 124.026 26.5258 124.026 28.2416C124.026 29.9574 125.437 31.369 127.153 31.369H139.382C140.128 31.369 140.743 31.9831 140.743 32.7292C140.743 33.4754 140.128 34.0906 139.382 34.0906H127.153C125.437 34.0906 124.026 35.5022 124.026 37.218C124.026 38.9328 125.437 40.3454 127.153 40.3454H137.334C138.03 40.4206 138.562 41.0129 138.562 41.7133C138.562 42.4147 138.03 43.007 137.334 43.0823H123.775C122.06 43.0823 120.647 44.4938 120.647 46.2096C120.647 47.9254 122.06 49.337 123.775 49.337H127.23C127.977 49.337 128.592 49.9522 128.592 50.6973C128.592 51.4434 127.977 52.0586 127.23 52.0586H122.664C116.071 52.0248 109.668 49.8268 104.446 45.8028L99.9584 42.3624L99.9894 26.1462ZM93.5152 22.0796V45.8501H86.0091V22.0796H93.5152Z" fill="#FF8B20"/>
<path d="M3.12737 55.8592H8.30336C10.0192 55.8592 11.4307 54.4477 11.4307 52.7319C11.4307 51.016 10.0192 49.6045 8.30336 49.6045H3.12737C1.41149 49.6045 0 51.016 0 52.7319C0 54.4477 1.41155 55.8592 3.12737 55.8592Z" fill="#FF8B20"/>
<path d="M89.1387 123.165V127.732C89.1463 131.907 92.5791 135.34 96.7548 135.348C97.2108 135.341 97.6656 135.294 98.1151 135.207V137.835V137.848C98.1151 142.017 101.546 145.449 105.715 145.449C106.816 145.449 107.906 145.209 108.906 144.746C110.336 146.455 112.454 147.443 114.682 147.443C117.527 147.443 120.138 145.833 121.417 143.292C122.131 143.516 122.874 143.636 123.621 143.652C123.657 143.652 123.694 143.654 123.73 143.654C127.913 143.654 131.354 140.216 131.362 136.036V135.74C136.005 134.355 139.203 130.043 139.181 125.199V116.222C139.174 111.141 137.042 106.289 133.301 102.852L130.002 99.8333C131.004 99.3064 131.646 98.2756 131.675 97.1433V86.5098H132.3C134.016 86.5098 135.428 85.0972 135.428 83.3824V62.9586C135.428 61.2427 134.016 59.8312 132.3 59.8312C130.585 59.8312 129.173 61.2428 129.173 62.9586V80.2539H97.896V58.1733C97.896 56.4574 96.4845 55.0459 94.7686 55.0459C93.0528 55.0459 91.6413 56.4574 91.6413 58.1733V83.3824C91.6413 85.0972 93.0528 86.5098 94.7686 86.5098H95.3937V97.1433C95.3992 98.4479 96.2184 99.6173 97.4423 100.068L96.6296 101.131C91.7831 107.454 89.1498 115.2 89.1389 123.165L89.1387 123.165ZM132.926 125.199C132.937 126.547 132.366 127.835 131.362 128.733V123.165C131.362 121.45 129.95 120.038 128.234 120.038C126.518 120.038 125.107 121.45 125.107 123.165V136.036C125.107 136.782 124.492 137.396 123.747 137.396C123 137.396 122.385 136.782 122.385 136.036V127.654C122.385 125.938 120.974 124.526 119.258 124.526C117.542 124.526 116.13 125.938 116.13 127.654V139.883C116.13 140.628 115.516 141.243 114.77 141.243C114.024 141.243 113.409 140.628 113.409 139.883V127.654C113.409 125.938 111.997 124.526 110.281 124.526C108.567 124.526 107.154 125.938 107.154 127.654V137.835C107.079 138.53 106.486 139.063 105.786 139.063C105.085 139.063 104.492 138.53 104.417 137.835V124.275C104.417 122.561 103.006 121.148 101.29 121.148C99.5739 121.148 98.1624 122.561 98.1624 124.275V127.731C98.1624 128.477 97.5471 129.092 96.8021 129.092C96.056 129.092 95.4407 128.477 95.4407 127.731V123.165C95.4745 116.572 97.6726 110.168 101.697 104.947L105.137 100.459H121.369L129.079 107.527C131.506 109.768 132.899 112.918 132.926 116.222L132.926 125.199ZM125.42 86.5106V94.0167H101.649V86.5106H125.42Z" fill="#FF8B20"/>
<path d="M132.3 8.5219C134.016 8.5219 135.429 7.11035 135.429 5.39452V3.62737C135.429 1.91149 134.016 0.5 132.3 0.5C130.585 0.5 129.173 1.91155 129.173 3.62737V5.39452C129.173 7.1104 130.585 8.5219 132.3 8.5219Z" fill="#FF8B20"/>
<path d="M94.768 11.9307C96.4839 11.9307 97.8954 10.5192 97.8954 8.80336V3.62737C97.8954 1.91149 96.4838 0.5 94.768 0.5C93.0521 0.5 91.6406 1.91155 91.6406 3.62737V8.80336C91.6406 10.5192 93.0522 11.9307 94.768 11.9307Z" fill="#FF8B20"/>
<path d="M4.2053 121.992C3.98168 122.706 3.86167 123.449 3.84531 124.198V124.228C3.84531 128.408 7.28154 131.852 11.4614 131.86H11.7581C13.1424 136.503 17.4544 139.701 22.2989 139.679H31.2755C36.3566 139.672 41.2086 137.54 44.646 133.799L47.6644 130.499C48.1913 131.502 49.2221 132.144 50.3544 132.173H60.9879V132.798C60.9879 134.514 62.4005 135.926 64.1153 135.926H84.5391C86.255 135.926 87.6665 134.514 87.6665 132.798C87.6665 131.083 86.2549 129.67 84.5391 129.67H67.2438V98.3939H89.3398C91.0557 98.3939 92.4683 96.9823 92.4683 95.2665C92.4683 93.5506 91.0556 92.1391 89.3398 92.1391H64.1153C62.4005 92.1391 60.9879 93.5507 60.9879 95.2665V95.8915H50.3544C49.0498 95.897 47.8804 96.7162 47.4298 97.9401L46.3662 97.1274C40.0436 92.281 32.2976 89.6476 24.3325 89.6367H19.7661C15.5904 89.6444 12.1575 93.0771 12.15 97.2528C12.1565 97.7088 12.2034 98.1637 12.2907 98.6131H9.66286H9.64977C5.4805 98.6131 2.04873 102.044 2.04873 106.213C2.04873 107.314 2.28872 108.405 2.75123 109.404C1.04297 110.834 0.0546875 112.952 0.0546875 115.18C0.0546875 118.025 1.66476 120.636 4.20525 121.915L4.2053 121.992ZM53.4826 102.148H60.9887V125.918H53.4826V102.148ZM9.69544 104.868H23.2535C24.9694 104.868 26.382 103.457 26.382 101.741C26.382 100.025 24.9694 98.6133 23.2535 98.6133H19.7673C19.0212 98.6133 18.406 97.9981 18.406 97.2531C18.406 96.5069 19.0212 95.8917 19.7673 95.8917H24.3337C30.9266 95.9255 37.3299 98.1236 42.5517 102.148L47.0393 105.588V121.867L39.9717 129.577C37.73 132.004 34.5807 133.397 31.2765 133.424H22.3622C20.9943 133.452 19.6787 132.881 18.7656 131.86H24.3334C26.0482 131.86 27.4608 130.448 27.4608 128.732C27.4608 127.016 26.0482 125.605 24.3334 125.605H11.4626C10.7164 125.605 10.1023 124.99 10.1023 124.245C10.1023 123.498 10.7164 122.883 11.4626 122.883H19.8447C21.5606 122.883 22.9721 121.472 22.9721 119.756C22.9721 118.04 21.5605 116.628 19.8447 116.628H7.61528C6.87022 116.628 6.255 116.014 6.255 115.268C6.255 114.522 6.87022 113.907 7.61528 113.907H19.8447C21.5606 113.907 22.9721 112.495 22.9721 110.779C22.9721 109.065 21.5605 107.652 19.8447 107.652H9.66389C8.96793 107.577 8.43561 106.984 8.43561 106.284C8.43561 105.583 8.96793 104.99 9.66389 104.915L9.69544 104.868Z" fill="#FF8B20"/>
<path d="M147 132.799C147 131.084 145.588 129.672 143.872 129.672H142.121C140.406 129.672 138.993 131.085 138.993 132.799C138.993 134.515 140.406 135.928 142.121 135.928H143.872C145.588 135.928 147 134.515 147 132.799Z" fill="#FF8B20"/>
<path d="M143.872 92.1396H138.696C136.98 92.1396 135.568 93.5512 135.568 95.267C135.568 96.9829 136.98 98.3944 138.696 98.3944H143.872C145.588 98.3944 146.999 96.9828 146.999 95.267C146.999 93.5511 145.588 92.1396 143.872 92.1396Z" fill="#FF8B20"/>
<path d="M7.81867 22.7999V31.7765C7.82522 36.8575 9.95782 41.7096 13.6984 45.1469L16.9981 48.1654C15.9956 48.6923 15.3531 49.7231 15.3247 50.8554V61.4889H14.6996C12.9838 61.4889 11.5712 62.9015 11.5712 64.6162V85.0401C11.5712 86.756 12.9838 88.1675 14.6996 88.1675C16.4144 88.1675 17.827 86.7559 17.827 85.0401V67.7447H49.1035V89.8408C49.1035 91.5566 50.5151 92.9693 52.2309 92.9693C53.9468 92.9693 55.3583 91.5566 55.3583 89.8408V64.6162C55.3583 62.9014 53.9467 61.4889 52.2309 61.4889H51.6059V50.8554C51.6004 49.5508 50.7812 48.3814 49.5573 47.9308L50.37 46.8672C55.2164 40.5446 57.8498 32.7986 57.8607 24.8334V20.2671C57.8531 16.0914 54.4203 12.6585 50.2446 12.651C49.7886 12.6575 49.3337 12.7044 48.8843 12.7917V10.1638V10.1507C48.8843 5.98147 45.4537 2.54971 41.2844 2.54971C40.1837 2.54971 39.0929 2.7897 38.0936 3.2522C36.6635 1.54395 34.5451 0.555664 32.3175 0.555664C29.4725 0.555664 26.8612 2.16574 25.5827 4.70623C24.8682 4.48261 24.1254 4.3626 23.3782 4.34624C23.3422 4.34624 23.3051 4.34515 23.2691 4.34515C19.0867 4.34515 15.6451 7.78249 15.6376 11.9624V12.2591C10.9939 13.6434 7.79669 17.9553 7.81847 22.7998L7.81867 22.7999ZM21.5795 61.4878V53.9817H45.3499V61.4878H21.5795ZM14.0734 22.7999C14.0625 21.4516 14.633 20.1633 15.6377 19.2656V24.8334C15.6377 26.5482 17.0492 27.9608 18.7651 27.9608C20.4809 27.9608 21.8924 26.5481 21.8924 24.8334V11.9625C21.8924 11.2164 22.5077 10.6023 23.2527 10.6023C23.9989 10.6023 24.6141 11.2164 24.6141 11.9625V20.3446C24.6141 22.0605 26.0256 23.472 27.7415 23.472C29.4573 23.472 30.8688 22.0605 30.8688 20.3446V8.11525C30.8688 7.37019 31.483 6.75497 32.2291 6.75497C32.9752 6.75497 33.5905 7.37019 33.5905 8.11525V20.3446C33.5905 22.0605 35.002 23.472 36.7178 23.472C38.4326 23.472 39.8452 22.0605 39.8452 20.3446V10.1639C39.9205 9.4679 40.5128 8.93559 41.2131 8.93559C41.9145 8.93559 42.5069 9.4679 42.5821 10.1639V23.7231C42.5821 25.4379 43.9937 26.8504 45.7095 26.8504C47.4253 26.8504 48.8369 25.4378 48.8369 23.7231V20.2673C48.8369 19.5212 49.4521 18.9059 50.1971 18.9059C50.9433 18.9059 51.5585 19.5212 51.5585 20.2673V24.8337C51.5247 31.4266 49.3266 37.8299 45.3026 43.0517L41.8622 47.5393H25.6305L17.9206 40.4716C15.4935 38.23 14.1004 35.0806 14.0733 31.7765L14.0734 22.7999Z" fill="#FF8B20"/>
<path d="M11.5723 142.621V144.372C11.5723 146.088 12.9849 147.5 14.7008 147.5C16.4155 147.5 17.8281 146.088 17.8281 144.372V142.621C17.8281 140.906 16.4155 139.493 14.7008 139.493C12.9849 139.493 11.5723 140.906 11.5723 142.621Z" fill="#FF8B20"/>
<path d="M49.1045 139.194V144.37C49.1045 146.086 50.516 147.497 52.2319 147.497C53.9477 147.497 55.3592 146.086 55.3592 144.37V139.194C55.3592 137.478 53.9477 136.066 52.2319 136.066C50.516 136.066 49.1045 137.478 49.1045 139.194Z" fill="#FF8B20"/>
</svg>
