<svg width="161" height="158" viewBox="0 0 161 158" fill="none" xmlns="http://www.w3.org/2000/svg">
<path d="M61.3825 157.268L49.3798 145.266L41.3792 153.266L21.7753 133.662L32.1763 123.261C16.5737 110.059 9.37107 90.8566 14.5726 72.0527C-0.229095 69.6528 -7.43171 46.0499 10.9727 36.4468L14.5726 43.6466C2.1713 49.6464 8.97186 64.4508 17.3745 64.0493C20.9744 56.4473 26.5753 49.6469 33.7779 43.6466C21.3766 25.2478 34.5788 0.0429688 56.9817 0.0429688C72.5843 0.0429688 84.9857 12.4443 84.9857 28.0469C88.5856 28.0469 91.7864 28.4459 94.9873 29.2469C102.187 13.2456 123.393 16.4433 124.992 16.0447V26.0463C138.194 20.0465 148.998 26.4454 150.596 26.8472L139.395 55.2534C142.196 59.2552 144.596 63.6562 146.195 68.0569L161 68.0541V104.059H144.597C142.998 108.06 140.595 111.661 137.796 114.861L156.2 133.266L136.197 153.269L126.195 143.267L116.194 153.269L100.591 137.666C93.3913 139.667 86.1887 140.468 78.5867 140.066L61.3825 157.268ZM55.3827 139.667L61.7844 146.069L68.5852 139.268C64.9852 138.869 61.7844 138.068 58.1842 136.868L55.3827 139.667ZM102.988 128.865L116.191 142.067L124.593 133.664L114.991 124.062C125.794 116.862 132.993 111.661 138.997 96.4568L152.997 96.4596V76.4562H140.194C134.992 58.0518 124.991 51.2514 116.99 46.0519L116.993 24.0476C103.391 25.2476 102.191 32.4504 100.589 38.45C95.3876 37.25 90.9871 36.05 83.7866 36.05C82.9857 38.8518 81.3866 41.6508 79.7848 44.4528C82.5866 44.051 85.7874 44.051 88.9885 44.051V52.0516C68.1843 52.0516 54.1834 56.4524 43.7803 66.8533L38.1795 61.2525C40.9813 58.4507 43.7803 56.0508 46.9809 54.0528C44.1791 52.8528 41.7792 51.6528 39.379 49.6519C27.3763 58.8527 20.9774 71.254 20.9774 84.0576C20.9774 104.862 36.5799 116.462 44.1812 122.063L32.9765 133.664L41.3793 142.066L55.7817 127.664C70.9849 132.866 84.1849 134.066 102.988 128.864L102.988 128.865ZM132.195 137.666L136.596 142.067L144.999 133.664L132.196 121.263C130.596 122.463 128.995 124.065 127.396 125.265L136.197 134.066L132.195 137.666ZM124.993 41.2505C128.194 43.2514 130.993 45.6514 133.396 48.4502L139.797 32.0468C134.596 31.2459 128.995 32.4459 124.594 35.2477V41.2503L124.993 41.2505ZM56.9822 8.045C45.7804 8.045 36.9789 16.8465 36.9789 28.0483C36.9789 40.051 47.7814 50.0527 60.5821 47.6523C61.7821 47.2532 62.583 46.8513 63.783 46.8513C84.5872 39.2494 79.3856 8.045 56.9822 8.045ZM124.993 76.0555H116.992C116.992 65.6545 100.991 65.6545 100.991 76.0555H92.9903C92.9903 67.2541 100.19 60.0543 108.992 60.0543C117.793 60.0543 124.993 67.2541 124.993 76.0555Z" fill="#FF8B20"/>
</svg>
