<svg width="163" height="162" viewBox="0 0 163 162" fill="none" xmlns="http://www.w3.org/2000/svg">
<path fill-rule="evenodd" clip-rule="evenodd" d="M81.5099 0C36.8152 0 0.5 36.2955 0.5 80.9901C0.5 125.685 36.8119 162 81.5099 162C126.204 162 162.5 125.685 162.5 80.9901C162.5 36.2955 126.204 0 81.5099 0ZM81.5099 7.36298C122.227 7.36298 155.136 40.2725 155.136 80.9895C155.136 121.706 122.224 154.636 81.5099 154.636C40.7929 154.636 7.86364 121.703 7.86364 80.9895C7.86364 40.2725 40.7929 7.36298 81.5099 7.36298Z" fill="#FF8B20"/>
<path fill-rule="evenodd" clip-rule="evenodd" d="M40.234 64.7924C38.2013 64.8232 36.5795 66.4939 36.6078 68.5252C36.6078 76.7232 43.3274 83.4428 51.5254 83.4428C59.7102 83.4428 66.443 76.7307 66.443 68.5252H66.4417C66.4558 67.5403 66.0745 66.59 65.3823 65.8889C64.6902 65.1865 63.7451 64.791 62.7601 64.791C61.7739 64.791 60.8301 65.1865 60.1379 65.8889C59.4458 66.59 59.0644 67.5403 59.0785 68.5252C59.0785 72.7475 55.7294 76.0785 51.5252 76.0785C47.2954 76.0785 43.9719 72.754 43.9719 68.5252H43.9706C43.9848 67.53 43.5957 66.5721 42.892 65.8684C42.187 65.166 41.2291 64.7769 40.2339 64.7923L40.234 64.7924Z" fill="#FF8B20"/>
<path fill-rule="evenodd" clip-rule="evenodd" d="M100.185 64.7924C98.1537 64.8232 96.5307 66.4939 96.559 68.5252C96.559 76.7294 103.291 83.4428 111.477 83.4428C119.675 83.4428 126.394 76.7232 126.394 68.5252H126.393C126.407 67.5403 126.026 66.59 125.333 65.8889C124.641 65.1865 123.698 64.791 122.711 64.791C121.726 64.791 120.781 65.1865 120.089 65.8889C119.398 66.59 119.016 67.5403 119.03 68.5252C119.03 72.755 115.705 76.0785 111.476 76.0785C107.271 76.0785 103.923 72.7475 103.923 68.5252C103.937 67.53 103.547 66.5721 102.843 65.8684C102.139 65.166 101.18 64.7769 100.185 64.7923L100.185 64.7924Z" fill="#FF8B20"/>
<path fill-rule="evenodd" clip-rule="evenodd" d="M122.875 101.991C121.529 101.955 120.272 102.656 119.595 103.819C111.826 116.733 97.7007 125.385 81.5112 125.385C65.3017 125.385 51.179 116.733 43.4307 103.822V103.821C42.9376 102.966 42.1209 102.343 41.1642 102.095C40.2076 101.847 39.1918 101.995 38.3456 102.503C37.4981 103.012 36.8907 103.839 36.6609 104.799C36.4297 105.76 36.5941 106.773 37.1167 107.61C46.1556 122.668 62.6784 132.748 81.5122 132.748C100.33 132.748 116.851 122.668 125.904 107.614C126.6 106.493 126.644 105.086 126.019 103.925C125.392 102.764 124.194 102.026 122.875 101.991L122.875 101.991Z" fill="#FF8B20"/>
</svg>
