<svg width="187" height="169" viewBox="0 0 187 169" fill="none" xmlns="http://www.w3.org/2000/svg">
<path d="M9.6783 41.9098C10.0665 42.6876 10.7622 43.2678 11.597 43.5099C12.4304 43.752 13.3279 43.6366 14.0737 43.1885L24.9348 36.6712V74.8018C24.9348 75.6283 25.2631 76.4214 25.8475 77.0058C26.4319 77.5902 27.225 77.9186 28.0515 77.9186H71.6853C72.5117 77.9186 73.3049 77.5902 73.8892 77.0058C74.4736 76.4214 74.802 75.6283 74.802 74.8018V36.6712L85.6631 43.1885C86.4089 43.6365 87.3063 43.752 88.1397 43.5099C88.9746 43.2678 89.6702 42.6876 90.0584 41.9098L99.4085 23.2096C100.078 21.8586 99.684 20.2223 98.4735 19.3235L80.2032 5.61006C75.343 1.97866 69.4408 0.011042 63.373 0H36.3635C30.2958 0.0111311 24.3936 1.97855 19.5334 5.61006L1.24775 19.3235C0.0428191 20.2266 -0.344008 21.8628 0.328059 23.2096L9.6783 41.9098ZM92.668 22.7519L85.9894 36.1163L81.7596 33.5798L88.6719 19.7538L92.668 22.7519ZM56.1011 6.2334C56.1011 8.46101 54.9129 10.5188 52.9844 11.6319C51.056 12.745 48.6795 12.745 46.751 11.6319C44.8226 10.5188 43.6343 8.46094 43.6343 6.2334H56.1011ZM23.27 10.5968C27.0503 7.77366 31.6405 6.24302 36.3601 6.2334H37.4009C37.4009 10.6873 39.7774 14.8031 43.6343 17.0304C47.4912 19.2566 52.2442 19.2566 56.1011 17.0304C59.958 14.8028 62.3345 10.6869 62.3345 6.2334H63.3725C68.0906 6.24314 72.6809 7.77366 76.4626 10.5968L83.5961 15.9479L76.3928 30.3599L73.2761 28.4899H73.2775C72.3147 27.9166 71.1181 27.9055 70.1441 28.4592C69.1701 29.013 68.5676 30.0468 68.5676 31.1669V71.684H31.1672V31.1669C31.1672 30.0441 30.562 29.0075 29.5852 28.4551C28.6071 27.9013 27.4077 27.918 26.4449 28.4954L23.3282 30.3654L16.1348 15.9478L23.27 10.5968ZM11.0646 19.7506L17.9769 33.5767L13.7471 36.1132L7.06847 22.7516L11.0646 19.7506Z" fill="#FF8B20"/>
<path d="M87.5963 113.593L96.9464 132.294C97.3346 133.071 98.0303 133.652 98.8651 133.894C99.6985 134.136 100.596 134.02 101.342 133.572L112.203 127.055V165.186C112.203 166.012 112.531 166.805 113.116 167.39C113.7 167.974 114.493 168.302 115.32 168.302H158.953C159.78 168.302 160.573 167.974 161.157 167.39C161.742 166.805 162.07 166.012 162.07 165.186V127.055L172.931 133.572C173.677 134.02 174.574 134.136 175.408 133.894C176.243 133.652 176.938 133.071 177.326 132.294L186.677 113.593C187.346 112.242 186.952 110.606 185.742 109.707L167.456 95.9939C162.595 92.3624 156.692 90.3948 150.626 90.3838H123.632C117.564 90.3949 111.662 92.3623 106.801 95.9939L88.5158 109.707C87.3109 110.61 86.9241 112.247 87.5961 113.593H87.5963ZM179.936 113.136L173.257 126.5L169.028 123.964L175.94 110.138L179.936 113.136ZM143.369 96.6171C143.369 98.8447 142.181 100.902 140.252 102.016C138.324 103.129 135.948 103.129 134.019 102.016C132.091 100.902 130.902 98.8446 130.902 96.6171H143.369ZM110.538 100.98C114.318 98.1574 118.909 96.6267 123.628 96.6171H124.669C124.669 101.071 127.045 105.187 130.902 107.414C134.759 109.64 139.512 109.64 143.369 107.414C147.226 105.186 149.603 101.071 149.603 96.6171H150.641C155.359 96.6269 159.949 98.1574 163.731 100.98L170.864 106.332L163.661 120.744L160.544 118.874H160.546C159.583 118.3 158.386 118.289 157.412 118.843C156.438 119.397 155.836 120.431 155.836 121.551V162.068H118.435V121.551C118.435 120.428 117.83 119.391 116.853 118.839C115.875 118.285 114.676 118.302 113.713 118.879L110.596 120.749L103.393 106.337L110.538 100.98ZM98.3327 110.134L105.245 123.96L101.015 126.497L94.3365 113.135L98.3327 110.134Z" fill="#FF8B20"/>
<path d="M115.318 37.4001H124.668V56.1003C124.668 56.9268 124.996 57.7199 125.581 58.3043C126.165 58.8887 126.958 59.2171 127.785 59.2171H146.485C147.312 59.2171 148.105 58.8887 148.689 58.3043C149.273 57.7199 149.602 56.9268 149.602 56.1003V37.4001H158.952C160.176 37.4015 161.287 36.6864 161.793 35.5719C162.298 34.4574 162.105 33.1495 161.299 32.2298L139.482 7.29615C138.873 6.64916 138.023 6.2832 137.135 6.2832C136.247 6.2832 135.397 6.64912 134.788 7.29615L112.971 32.2298C112.165 33.1495 111.972 34.4574 112.477 35.5719C112.983 36.6864 114.094 37.4015 115.318 37.4001H115.318ZM137.135 14.0847L152.095 31.1667H146.485C144.764 31.1667 143.368 32.5623 143.368 34.2834V52.9836H130.902V34.2834C130.902 33.457 130.573 32.6639 129.989 32.0795C129.404 31.4951 128.611 31.1667 127.785 31.1667H122.175L137.135 14.0847Z" fill="#FF8B20"/>
<path d="M37.4001 112.202V130.902H28.05C26.8256 130.9 25.7153 131.616 25.2088 132.73C24.7037 133.845 24.8971 135.153 25.7027 136.072L47.5196 161.006C48.1124 161.683 48.9681 162.072 49.8669 162.072C50.7657 162.072 51.6214 161.683 52.2142 161.006L74.0311 136.072C74.8367 135.153 75.0301 133.845 74.525 132.73C74.0185 131.616 72.9082 130.9 71.6838 130.902H62.3337V112.202C62.3337 111.375 62.0053 110.582 61.4209 109.998C60.8365 109.413 60.0434 109.085 59.217 109.085H40.5168C38.7956 109.085 37.4001 110.481 37.4001 112.202H37.4001ZM43.6335 134.019V115.318H56.1003V134.019C56.1003 134.845 56.4287 135.638 57.0131 136.223C57.5975 136.807 58.3906 137.135 59.217 137.135H64.8271L49.8669 154.217L34.9068 137.135H40.5168C41.3433 137.135 42.1364 136.807 42.7208 136.223C43.3052 135.638 43.6335 134.845 43.6335 134.019Z" fill="#FF8B20"/>
<path d="M134.018 65.4502H140.251V71.6836H134.018V65.4502Z" fill="#FF8B20"/>
<path d="M134.018 77.918H140.251V84.1514H134.018V77.918Z" fill="#FF8B20"/>
<path d="M46.752 84.1514H52.9854V90.3848H46.752V84.1514Z" fill="#FF8B20"/>
<path d="M46.752 96.6172H52.9854V102.851H46.752V96.6172Z" fill="#FF8B20"/>
</svg>
