<svg width="192" height="23" viewBox="0 0 192 23" fill="none" xmlns="http://www.w3.org/2000/svg">
<path d="M23.2585 8.09993L16.0637 7.0506L12.8475 0.507171C12.7597 0.328016 12.6151 0.182986 12.4366 0.0948302C11.9889 -0.126981 11.4448 0.0578617 11.221 0.507171L8.00473 7.0506L0.809999 8.09993C0.611641 8.12837 0.430285 8.22221 0.291434 8.3644C0.123571 8.53754 0.0310714 8.77048 0.0342594 9.01204C0.0374475 9.25359 0.136063 9.48399 0.308436 9.65261L5.51392 14.7457L4.2841 21.9375C4.25526 22.1048 4.27371 22.2769 4.33735 22.4342C4.40099 22.5915 4.50729 22.7278 4.64417 22.8275C4.78106 22.9273 4.94307 22.9866 5.11182 22.9987C5.28057 23.0108 5.44932 22.9751 5.59893 22.8959L12.0342 19.5004L18.4695 22.8959C18.6452 22.9897 18.8493 23.021 19.0448 22.9869C19.5378 22.9015 19.8694 22.4323 19.7844 21.9375L18.5546 14.7457L23.76 9.65261C23.9017 9.51327 23.9952 9.33127 24.0236 9.13221C24.1001 8.63455 23.7544 8.17387 23.2585 8.09993Z" fill="#FF8B20"/>
<path d="M49.2585 8.09993L42.0637 7.0506L38.8475 0.507171C38.7597 0.328016 38.6151 0.182986 38.4366 0.0948302C37.9889 -0.126981 37.4448 0.0578617 37.221 0.507171L34.0047 7.0506L26.81 8.09993C26.6116 8.12837 26.4303 8.22221 26.2914 8.3644C26.1236 8.53754 26.0311 8.77048 26.0343 9.01204C26.0374 9.25359 26.1361 9.48399 26.3084 9.65261L31.5139 14.7457L30.2841 21.9375C30.2553 22.1048 30.2737 22.2769 30.3374 22.4342C30.401 22.5915 30.5073 22.7278 30.6442 22.8275C30.7811 22.9273 30.9431 22.9866 31.1118 22.9987C31.2806 23.0108 31.4493 22.9751 31.5989 22.8959L38.0342 19.5004L44.4695 22.8959C44.6452 22.9897 44.8493 23.021 45.0448 22.9869C45.5378 22.9015 45.8694 22.4323 45.7844 21.9375L44.5546 14.7457L49.76 9.65261C49.9017 9.51327 49.9952 9.33127 50.0236 9.13221C50.1001 8.63455 49.7544 8.17387 49.2585 8.09993Z" fill="#FF8B20"/>
<path d="M75.2585 8.09993L68.0637 7.0506L64.8475 0.507171C64.7597 0.328016 64.6151 0.182986 64.4366 0.0948302C63.9889 -0.126981 63.4448 0.0578617 63.221 0.507171L60.0047 7.0506L52.81 8.09993C52.6116 8.12837 52.4303 8.22221 52.2914 8.3644C52.1236 8.53754 52.0311 8.77048 52.0343 9.01204C52.0374 9.25359 52.1361 9.48399 52.3084 9.65261L57.5139 14.7457L56.2841 21.9375C56.2553 22.1048 56.2737 22.2769 56.3374 22.4342C56.401 22.5915 56.5073 22.7278 56.6442 22.8275C56.7811 22.9273 56.9431 22.9866 57.1118 22.9987C57.2806 23.0108 57.4493 22.9751 57.5989 22.8959L64.0342 19.5004L70.4695 22.8959C70.6452 22.9897 70.8493 23.021 71.0448 22.9869C71.5378 22.9015 71.8694 22.4323 71.7844 21.9375L70.5546 14.7457L75.76 9.65261C75.9017 9.51327 75.9952 9.33127 76.0236 9.13221C76.1001 8.63455 75.7544 8.17387 75.2585 8.09993Z" fill="#FF8B20"/>
<path d="M101.258 8.09993L94.0637 7.0506L90.8475 0.507171C90.7597 0.328016 90.6151 0.182986 90.4366 0.0948302C89.9889 -0.126981 89.4448 0.0578617 89.221 0.507171L86.0047 7.0506L78.81 8.09993C78.6116 8.12837 78.4303 8.22221 78.2914 8.3644C78.1236 8.53754 78.0311 8.77048 78.0343 9.01204C78.0374 9.25359 78.1361 9.48399 78.3084 9.65261L83.5139 14.7457L82.2841 21.9375C82.2553 22.1048 82.2737 22.2769 82.3374 22.4342C82.401 22.5915 82.5073 22.7278 82.6442 22.8275C82.7811 22.9273 82.9431 22.9866 83.1118 22.9987C83.2806 23.0108 83.4493 22.9751 83.5989 22.8959L90.0342 19.5004L96.4695 22.8959C96.6452 22.9897 96.8493 23.021 97.0448 22.9869C97.5378 22.9015 97.8694 22.4323 97.7844 21.9375L96.5546 14.7457L101.76 9.65261C101.902 9.51327 101.995 9.33127 102.024 9.13221C102.1 8.63455 101.754 8.17387 101.258 8.09993Z" fill="#FF8B20"/>
<path d="M127.258 8.09993L120.064 7.0506L116.848 0.507171C116.76 0.328016 116.615 0.182986 116.437 0.0948302C115.989 -0.126981 115.445 0.0578617 115.221 0.507171L112.005 7.0506L104.81 8.09993C104.612 8.12837 104.43 8.22221 104.291 8.3644C104.124 8.53754 104.031 8.77048 104.034 9.01204C104.037 9.25359 104.136 9.48399 104.308 9.65261L109.514 14.7457L108.284 21.9375C108.255 22.1048 108.274 22.2769 108.337 22.4342C108.401 22.5915 108.507 22.7278 108.644 22.8275C108.781 22.9273 108.943 22.9866 109.112 22.9987C109.281 23.0108 109.449 22.9751 109.599 22.8959L116.034 19.5004L122.47 22.8959C122.645 22.9897 122.849 23.021 123.045 22.9869C123.538 22.9015 123.869 22.4323 123.784 21.9375L122.555 14.7457L127.76 9.65261C127.902 9.51327 127.995 9.33127 128.024 9.13221C128.1 8.63455 127.754 8.17387 127.258 8.09993Z" fill="#FF8B20"/>
</svg>
